<svg width="24" height="25" viewBox="0 0 24 25" fill="none" xmlns="http://www.w3.org/2000/svg">
<g clip-path="url(#clip0_19_30)">
<mask id="mask0_19_30" style="mask-type:luminance" maskUnits="userSpaceOnUse" x="0" y="0" width="24" height="25">
<path d="M24 0.5H0V24.5H24V0.5Z" fill="white"/>
</mask>
<g mask="url(#mask0_19_30)">
<path d="M19.5001 13.072L12.0001 20.5L4.50006 13.072C4.00536 12.5906 3.6157 12.012 3.3556 11.3726C3.09551 10.7333 2.97062 10.0469 2.98879 9.35693C3.00697 8.66691 3.16782 7.98813 3.46121 7.36333C3.75461 6.73853 4.17419 6.18125 4.69354 5.72657C5.21289 5.2719 5.82076 4.92968 6.47887 4.72147C7.13697 4.51327 7.83106 4.44358 8.51743 4.5168C9.20379 4.59001 9.86756 4.80455 10.4669 5.1469C11.0663 5.48925 11.5883 5.95199 12.0001 6.50599C12.4136 5.95602 12.9362 5.49731 13.5352 5.1586C14.1341 4.81988 14.7966 4.60844 15.481 4.53751C16.1654 4.46658 16.8571 4.53769 17.5128 4.74639C18.1685 4.95508 18.7741 5.29687 19.2916 5.75036C19.8091 6.20385 20.2275 6.75928 20.5205 7.38189C20.8135 8.00449 20.9748 8.68088 20.9944 9.3687C21.0139 10.0565 20.8913 10.741 20.6342 11.3792C20.3771 12.0175 19.991 12.5958 19.5001 13.078" stroke="white" stroke-width="2" stroke-linecap="round" stroke-linejoin="round"/>
<path d="M12 6.5L8.70697 9.793C8.5195 9.98053 8.41418 10.2348 8.41418 10.5C8.41418 10.7652 8.5195 11.0195 8.70697 11.207L9.24998 11.75C9.93998 12.44 11.06 12.44 11.75 11.75L12.75 10.75C13.3467 10.1533 14.1561 9.81803 15 9.81803C15.8439 9.81803 16.6532 10.1533 17.25 10.75L19.5 13" stroke="white" stroke-width="2" stroke-linecap="round" stroke-linejoin="round"/>
<path d="M12.5 16L14.5 18" stroke="white" stroke-width="2" stroke-linecap="round" stroke-linejoin="round"/>
<path d="M15 13.5L17 15.5" stroke="white" stroke-width="2" stroke-linecap="round" stroke-linejoin="round"/>
</g>
</g>
<defs>
<clipPath id="clip0_19_30">
<rect width="24" height="24" fill="white" transform="translate(0 0.5)"/>
</clipPath>
</defs>
</svg>
